<?xml version="1.0" encoding="UTF-8"?>
<svg width="168px" height="75px" viewBox="0 0 168 75" version="1.1" xmlns="http://www.w3.org/2000/svg" xmlns:xlink="http://www.w3.org/1999/xlink">
    <!-- Generator: Sketch 44.1 (41455) - http://www.bohemiancoding.com/sketch -->
    <title>Admin Navbar Logo</title>
    <desc>Created with Sketch.</desc>
    <defs></defs>
    <g id="Flow-Flow" stroke="none" stroke-width="1" fill="none" fill-rule="evenodd">
        <g id="Admin-Navbar-Logo">
            <g id="Navbar-Logo" transform="translate(10.000000, 8.000000)">
                <path d="M80.2743478,13.4552181 C79.8276789,13.2885506 79.2443514,13.2052181 78.5243478,13.2052181 C77.7376772,13.2052181 77.12435,13.4252159 76.6843478,13.8652181 C76.2443456,14.3052203 76.0243478,14.8585481 76.0243478,15.5252181 C76.0243478,15.9385535 76.1743463,16.255217 76.4743478,16.4752181 C76.7743493,16.6952192 77.237678,16.9385501 77.8643478,17.2052181 L78.5843478,17.5052181 L79.1843478,17.7852181 C79.9043514,18.1052197 80.4743457,18.3952168 80.8943478,18.6552181 C81.3143499,18.9152194 81.671013,19.2718825 81.9643478,19.7252181 C82.2576826,20.1785537 82.4043478,20.7585479 82.4043478,21.4652181 C82.4043478,22.2252219 82.1543503,22.881882 81.6543478,23.4352181 C81.1543453,23.9885542 80.4576856,24.40855 79.5643478,24.6952181 C78.67101,24.9818862 77.6310204,25.1252181 76.4443478,25.1252181 C75.5643434,25.1252181 74.7410183,24.9885528 73.9743478,24.7152181 C73.2076773,24.4418834 72.6010167,24.0985535 72.1543478,23.6852181 C71.7076789,23.2718827 71.4843478,22.8652201 71.4843478,22.4652181 C71.4843478,22.0785495 71.6510128,21.761886 71.9843478,21.5152181 C72.3176828,21.2685502 72.7910114,21.0985519 73.4043478,21.0052181 C73.4710148,21.3918867 73.6976792,21.7385499 74.0843478,22.0452181 C74.4710164,22.3518863 74.9210119,22.5952172 75.4343478,22.7752181 C75.9476837,22.955219 76.3976792,23.0452181 76.7843478,23.0452181 C77.491018,23.0452181 78.1210117,22.9052195 78.6743478,22.6252181 C79.2276839,22.3452167 79.5043478,21.9585539 79.5043478,21.4652181 C79.5043478,21.0518827 79.3076831,20.7085528 78.9143478,20.4352181 C78.5210125,20.1618834 77.9310184,19.8652197 77.1443478,19.5452181 L76.0843478,19.0652181 C75.2176768,18.6385493 74.531017,18.1585541 74.0243478,17.6252181 C73.5176786,17.0918821 73.2643478,16.3852225 73.2643478,15.5052181 C73.2643478,14.5318799 73.5376784,13.7418878 74.0843478,13.1352181 C74.6310172,12.5285484 75.2943439,12.0918861 76.0743478,11.8252181 C76.8543517,11.5585501 77.6176774,11.4252181 78.3643478,11.4252181 C79.5510204,11.4252181 80.5276773,11.5785499 81.2943478,11.8852181 C82.0610183,12.1918863 82.6176794,12.5785491 82.9643478,13.0452181 C83.3110162,13.5118871 83.4843478,13.9918823 83.4843478,14.4852181 C83.4843478,14.7652195 83.4143485,15.1052161 83.2743478,15.5052181 C83.1343471,15.9052201 82.9276825,16.2518833 82.6543478,16.5452181 C82.3810131,16.8385529 82.0510164,16.9852181 81.6643478,16.9852181 C80.9976778,16.9852181 80.6643478,16.6385549 80.6643478,15.9452181 C80.6910146,15.7318837 80.751014,15.3818872 80.8443478,14.8952181 C80.9376816,14.408549 81.0043476,14.1185519 81.0443478,14.0252181 C80.9776808,13.8118837 80.7210167,13.6218856 80.2743478,13.4552181 Z M85.3643478,23.7852181 C84.7110112,22.9852141 84.3843478,21.9652243 84.3843478,20.7252181 C84.3843478,19.6852129 84.6343453,18.7052227 85.1343478,17.7852181 C85.6343503,16.8652135 86.3176768,16.1252209 87.1843478,15.5652181 C88.0510188,15.0052153 89.0043426,14.7252181 90.0443478,14.7252181 C91.0710196,14.7252181 91.9143445,15.0618814 92.5743478,15.7352181 C93.2343511,16.4085548 93.5643478,17.3985449 93.5643478,18.7052181 C93.5643478,19.6252227 93.311017,20.5785465 92.8043478,21.5652181 C92.2976786,22.5518897 91.6210187,23.3685482 90.7743478,24.0152181 C89.9276769,24.661888 89.0376858,24.9852181 88.1043478,24.9852181 C86.9310086,24.9852181 86.0176844,24.5852221 85.3643478,23.7852181 Z M89.6943478,22.5852181 C90.1276833,22.0518821 90.4843464,21.3785555 90.7643478,20.5652181 C91.0443492,19.7518807 91.1843478,18.9585553 91.1843478,18.1852181 C91.1843478,16.9985455 90.6910194,16.4052181 89.7043478,16.4052181 C89.1576784,16.4052181 88.6576834,16.6652155 88.2043478,17.1852181 C87.7510122,17.7052207 87.3910158,18.3485476 87.1243478,19.1152181 C86.8576798,19.8818886 86.7243478,20.5985481 86.7243478,21.2652181 C86.7243478,21.6518867 86.8110136,22.0085498 86.9843478,22.3352181 C87.157682,22.6618864 87.3743465,22.9185505 87.6343478,23.1052181 C87.8943491,23.2918857 88.1510132,23.3852181 88.4043478,23.3852181 C88.8310166,23.3852181 89.2610123,23.1185541 89.6943478,22.5852181 Z M102.204348,23.4952181 C101.737679,23.9285536 101.144351,24.2852167 100.424348,24.5652181 C99.7043442,24.8452195 98.9176854,24.9852181 98.0643478,24.9852181 C96.7576746,24.9852181 95.7910176,24.7152208 95.1643478,24.1752181 C94.537678,23.6352154 94.2243478,22.9318891 94.2243478,22.0652181 C94.2243478,20.8118785 94.5443446,19.6485568 95.1843478,18.5752181 C95.824351,17.5018794 96.6843424,16.6518879 97.7643478,16.0252181 C98.8443532,15.3985483 99.997675,15.0852181 101.224348,15.0852181 C101.984352,15.0852181 102.614345,15.3085492 103.114348,15.7552181 C103.61435,16.201887 103.864348,16.8052143 103.864348,17.5652181 C103.864348,17.8585529 103.744349,18.1018838 103.504348,18.2952181 C103.264347,18.4885524 102.94435,18.5852181 102.544348,18.5852181 C102.224346,18.5852181 102.007682,18.5118855 101.894348,18.3652181 C101.781014,18.2185507 101.724348,18.0252193 101.724348,17.7852181 L101.744348,17.3252181 C101.744348,17.1652173 101.657682,17.0352186 101.484348,16.9352181 C101.311014,16.8352176 101.124349,16.7852181 100.924348,16.7852181 C100.511012,16.7852181 99.9543513,17.0318823 99.2543478,17.5252181 C98.5543443,18.0185539 97.9410171,18.6685474 97.4143478,19.4752181 C96.8876785,20.2818888 96.6243478,21.1452135 96.6243478,22.0652181 C96.6243478,22.4385533 96.771013,22.7252171 97.0643478,22.9252181 C97.3576826,23.1252191 97.7910116,23.2252181 98.3643478,23.2252181 C98.7243496,23.2252181 99.1376788,23.1518855 99.6043478,23.0052181 C100.071017,22.8585507 100.364347,22.6718859 100.484348,22.4452181 C100.937683,21.6185473 101.351013,21.2052181 101.724348,21.2052181 C102.271017,21.2052181 102.641014,21.3085504 102.834348,21.5152181 C103.027682,21.7218858 103.131014,21.9518835 103.144348,22.2052181 C102.984347,22.6318869 102.671017,23.0618826 102.204348,23.4952181 Z M107.094348,11.5852181 C107.354349,11.2652165 107.717679,11.1052181 108.184348,11.1052181 C108.677684,11.1052181 109.107679,11.2585499 109.474348,11.5652181 C109.841016,11.8718863 110.024348,12.2185495 110.024348,12.6052181 C110.024348,12.9918867 109.837683,13.3252167 109.464348,13.6052181 C109.091013,13.8852195 108.657684,14.0252181 108.164348,14.0252181 C107.684345,14.0252181 107.321016,13.901886 107.074348,13.6552181 C106.82768,13.4085502 106.704348,13.0852201 106.704348,12.6852181 C106.704348,12.2718827 106.834347,11.9052197 107.094348,11.5852181 Z M106.584348,16.0252181 L106.464348,15.2852181 C106.464348,15.1385507 106.551014,15.0252185 106.724348,14.9452181 C106.897682,14.8652177 107.231012,14.8252181 107.724348,14.8252181 C108.111016,14.8252181 108.394347,14.9318837 108.574348,15.1452181 C108.754349,15.3585525 108.844348,15.6118833 108.844348,15.9052181 C108.844348,15.9852185 108.831015,16.0918841 108.804348,16.2252181 L107.024348,23.4252181 L107.144348,24.1652181 C107.144348,24.3118855 107.057682,24.4252177 106.884348,24.5052181 C106.711014,24.5852185 106.377684,24.6252181 105.884348,24.6252181 C105.444346,24.6252181 105.157682,24.4952194 105.024348,24.2352181 C104.891014,23.9752168 104.817681,23.6385535 104.804348,23.2252181 C104.804348,22.9852169 105.397675,20.5852409 106.584348,16.0252181 Z M117.294348,24.7152181 C116.954346,24.8018852 116.657682,24.8452181 116.404348,24.8452181 C116.17768,24.8452181 116.024348,24.788552 115.944348,24.6752181 C115.864347,24.5618842 115.797681,24.3952192 115.744348,24.1752181 C115.691014,23.955217 115.651015,23.7985519 115.624348,23.7052181 C115.064345,24.0918867 114.487684,24.3885504 113.894348,24.5952181 C113.301012,24.8018858 112.80435,24.9052181 112.404348,24.9052181 C112.004346,24.9052181 111.59435,24.815219 111.174348,24.6352181 C110.754346,24.4552172 110.391016,24.141887 110.084348,23.6952181 C109.77768,23.2485492 109.624348,22.6518885 109.624348,21.9052181 C109.624348,21.1452143 109.861012,20.2285568 110.334348,19.1552181 C110.807684,18.0818794 111.487677,17.1485554 112.374348,16.3552181 C113.261019,15.5618808 114.297675,15.1652181 115.484348,15.1652181 C116.084351,15.1652181 116.677678,15.30855 117.264348,15.5952181 C117.851017,15.8818862 118.331013,16.2418826 118.704348,16.6752181 C119.077683,17.1085536 119.271014,17.5452159 119.284348,17.9852181 L119.024348,18.6852181 C118.651013,19.7252233 118.357682,20.6085478 118.144348,21.3352181 C117.931013,22.0618884 117.824348,22.7118819 117.824348,23.2852181 C117.824348,23.6718867 117.857681,23.9852169 117.924348,24.2252181 C117.844347,24.4652193 117.63435,24.628551 117.294348,24.7152181 Z M116.084348,20.7252181 C116.377683,19.7118797 116.65768,18.8585549 116.924348,18.1652181 C116.871014,17.9785505 116.751015,17.7818858 116.564348,17.5752181 C116.37768,17.3685504 116.184349,17.1952188 115.984348,17.0552181 C115.784347,16.9152174 115.644348,16.8452181 115.564348,16.8452181 C115.071012,16.8452181 114.544351,17.1418818 113.984348,17.7352181 C113.424345,18.3285544 112.95435,19.0318807 112.574348,19.8452181 C112.194346,20.6585555 112.004348,21.3652151 112.004348,21.9652181 C112.004348,22.2318861 112.084347,22.4818836 112.244348,22.7152181 C112.404349,22.9485526 112.57768,23.0652181 112.764348,23.0652181 C113.071016,23.0652181 113.561011,22.9485526 114.234348,22.7152181 C114.907685,22.4818836 115.37768,22.2518859 115.644348,22.0252181 C115.764348,21.6918831 115.911014,21.2585541 116.084348,20.7252181 Z M124.604348,14.4452181 C123.217674,20.2852473 122.411016,23.5852143 122.184348,24.3452181 C122.157681,24.4252185 122.021016,24.5285508 121.774348,24.6552181 C121.52768,24.7818854 121.357682,24.8452181 121.264348,24.8452181 C120.917679,24.8452181 120.604349,24.7618856 120.324348,24.5952181 C120.044346,24.4285506 119.891015,24.1385535 119.864348,23.7252181 C119.877681,23.6585511 119.911014,23.4718863 119.964348,23.1652181 C120.017681,22.8585499 120.091014,22.5252199 120.184348,22.1652181 C120.691017,20.2585419 121.277678,17.9252319 121.944348,15.1652181 L122.904348,11.3052181 C122.891014,11.2252177 122.884348,11.1118855 122.884348,10.9652181 C122.884348,10.4452155 123.034346,9.99855334 123.334348,9.62521814 C123.634349,9.25188294 123.977679,9.06521814 124.364348,9.06521814 C124.617682,9.06521814 124.85768,9.16188384 125.084348,9.35521814 C125.311016,9.54855244 125.491014,9.83854954 125.624348,10.2252181 L124.604348,14.4452181 Z M80.2743478,35.4552181 C79.8276789,35.2885506 79.2443514,35.2052181 78.5243478,35.2052181 C77.7376772,35.2052181 77.12435,35.4252159 76.6843478,35.8652181 C76.2443456,36.3052203 76.0243478,36.8585481 76.0243478,37.5252181 C76.0243478,37.9385535 76.1743463,38.255217 76.4743478,38.4752181 C76.7743493,38.6952192 77.237678,38.9385501 77.8643478,39.2052181 L78.5843478,39.5052181 L79.1843478,39.7852181 C79.9043514,40.1052197 80.4743457,40.3952168 80.8943478,40.6552181 C81.3143499,40.9152194 81.671013,41.2718825 81.9643478,41.7252181 C82.2576826,42.1785537 82.4043478,42.7585479 82.4043478,43.4652181 C82.4043478,44.2252219 82.1543503,44.881882 81.6543478,45.4352181 C81.1543453,45.9885542 80.4576856,46.40855 79.5643478,46.6952181 C78.67101,46.9818862 77.6310204,47.1252181 76.4443478,47.1252181 C75.5643434,47.1252181 74.7410183,46.9885528 73.9743478,46.7152181 C73.2076773,46.4418834 72.6010167,46.0985535 72.1543478,45.6852181 C71.7076789,45.2718827 71.4843478,44.8652201 71.4843478,44.4652181 C71.4843478,44.0785495 71.6510128,43.761886 71.9843478,43.5152181 C72.3176828,43.2685502 72.7910114,43.0985519 73.4043478,43.0052181 C73.4710148,43.3918867 73.6976792,43.7385499 74.0843478,44.0452181 C74.4710164,44.3518863 74.9210119,44.5952172 75.4343478,44.7752181 C75.9476837,44.955219 76.3976792,45.0452181 76.7843478,45.0452181 C77.491018,45.0452181 78.1210117,44.9052195 78.6743478,44.6252181 C79.2276839,44.3452167 79.5043478,43.9585539 79.5043478,43.4652181 C79.5043478,43.0518827 79.3076831,42.7085528 78.9143478,42.4352181 C78.5210125,42.1618834 77.9310184,41.8652197 77.1443478,41.5452181 L76.0843478,41.0652181 C75.2176768,40.6385493 74.531017,40.1585541 74.0243478,39.6252181 C73.5176786,39.0918821 73.2643478,38.3852225 73.2643478,37.5052181 C73.2643478,36.5318799 73.5376784,35.7418878 74.0843478,35.1352181 C74.6310172,34.5285484 75.2943439,34.0918861 76.0743478,33.8252181 C76.8543517,33.5585501 77.6176774,33.4252181 78.3643478,33.4252181 C79.5510204,33.4252181 80.5276773,33.5785499 81.2943478,33.8852181 C82.0610183,34.1918863 82.6176794,34.5785491 82.9643478,35.0452181 C83.3110162,35.5118871 83.4843478,35.9918823 83.4843478,36.4852181 C83.4843478,36.7652195 83.4143485,37.1052161 83.2743478,37.5052181 C83.1343471,37.9052201 82.9276825,38.2518833 82.6543478,38.5452181 C82.3810131,38.8385529 82.0510164,38.9852181 81.6643478,38.9852181 C80.9976778,38.9852181 80.6643478,38.6385549 80.6643478,37.9452181 C80.6910146,37.7318837 80.751014,37.3818872 80.8443478,36.8952181 C80.9376816,36.408549 81.0043476,36.1185519 81.0443478,36.0252181 C80.9776808,35.8118837 80.7210167,35.6218856 80.2743478,35.4552181 Z M87.2043478,44.3652181 C87.2043478,44.6718863 87.284347,44.9152172 87.4443478,45.0952181 C87.6043486,45.275219 87.831013,45.3652181 88.1243478,45.3652181 C88.5243498,45.3652181 88.8543465,45.2485526 89.1143478,45.0152181 C89.3743491,44.7818836 89.651013,44.4518869 89.9443478,44.0252181 C90.1576822,43.7185499 90.3310138,43.4985521 90.4643478,43.3652181 C90.5976818,43.2318841 90.7510136,43.1652181 90.9243478,43.1652181 C91.2710162,43.1652181 91.5176804,43.208551 91.6643478,43.2952181 C91.8110152,43.3818852 91.8843478,43.5585501 91.8843478,43.8252181 C91.8843478,43.9452187 91.8710146,44.0885506 91.8443478,44.2552181 C91.817681,44.4218856 91.784348,44.5452177 91.7443478,44.6252181 C91.4243462,45.3052215 90.9010181,45.8918823 90.1743478,46.3852181 C89.4476775,46.8785539 88.6243524,47.1252181 87.7043478,47.1252181 C86.7843432,47.1252181 86.0910168,46.901887 85.6243478,46.4552181 C85.1576788,46.0085492 84.9243478,45.3718889 84.9243478,44.5452181 C84.9243478,44.4252175 84.9843472,44.1118873 85.1043478,43.6052181 C85.2243484,43.0985489 85.3776802,42.4918883 85.5643478,41.7852181 L86.1243478,39.5052181 L84.9043478,39.6052181 C84.744347,39.6052181 84.6243482,39.5452187 84.5443478,39.4252181 C84.4643474,39.3052175 84.4243478,39.1585523 84.4243478,38.9852181 C84.4243478,38.6518831 84.5443466,38.3185531 84.7843478,37.9852181 C84.8110146,37.9452179 84.9443466,37.9052183 85.1843478,37.8652181 C85.424349,37.8252179 85.7176794,37.7852183 86.0643478,37.7452181 L86.6043478,37.6852181 L87.2843478,34.7652181 C87.4176818,34.4185497 87.6210131,34.1485524 87.8943478,33.9552181 C88.1676825,33.7618838 88.4243466,33.6652181 88.6643478,33.6652181 C88.9310158,33.6652181 89.1576802,33.7452173 89.3443478,33.9052181 C89.5310154,34.0652189 89.6310144,34.2518837 89.6443478,34.4652181 L88.9243478,37.4652181 C89.4443504,37.3985511 89.9276789,37.341885 90.3743478,37.2952181 C90.8210167,37.2485512 91.1710132,37.2252181 91.4243478,37.2252181 C91.931017,37.2252181 92.1843478,37.5185485 92.1843478,38.1052181 C92.1843478,38.3318859 92.0876821,38.5352172 91.8943478,38.7152181 C91.7010135,38.895219 91.4910156,39.0052179 91.2643478,39.0452181 L88.4643478,39.3252181 L87.2043478,44.3652181 Z M95.2343478,46.2752181 C95.1876809,46.5085526 95.0743487,46.6718843 94.8943478,46.7652181 C94.7143469,46.8585519 94.4310164,46.9052181 94.0443478,46.9052181 C93.6043456,46.9052181 93.2843488,46.8585519 93.0843478,46.7652181 C92.8843468,46.6718843 92.7843478,46.4718863 92.7843478,46.1652181 C92.824348,46.0052173 93.1110118,44.8652287 93.6443478,42.7452181 C94.0310164,41.1052099 94.3176802,39.9518881 94.5043478,39.2852181 C94.7043488,38.3385467 94.9376798,37.7152196 95.2043478,37.4152181 C95.4710158,37.1152166 95.7776794,36.9652181 96.1243478,36.9652181 C96.5910168,36.9652181 96.8943471,37.0318841 97.0343478,37.1652181 C97.1743485,37.2985521 97.2443478,37.4718837 97.2443478,37.6852181 L97.0043478,38.8652181 C97.4310166,38.3452155 97.9276783,37.9152198 98.4943478,37.5752181 C99.0610173,37.2352164 99.5643456,37.0652181 100.004348,37.0652181 C100.577684,37.0652181 101.024346,37.1652171 101.344348,37.3652181 C101.664349,37.5652191 101.824348,37.8252165 101.824348,38.1452181 C101.824348,38.3852193 101.674349,38.5752174 101.374348,38.7152181 C101.074346,38.8552188 100.68435,38.9452179 100.204348,38.9852181 C99.4843442,39.0518851 98.7476849,39.3652153 97.9943478,39.9252181 C97.2410107,40.4852209 96.677683,41.1452143 96.3043478,41.9052181 L95.3243478,45.8052181 C95.3110144,45.8852185 95.2810147,46.0418836 95.2343478,46.2752181 Z M101.984348,46.2052181 C101.384345,45.6852155 101.084348,44.9918891 101.084348,44.1252181 C101.084348,42.8585451 101.401011,41.6852235 102.034348,40.6052181 C102.667684,39.5252127 103.514343,38.6685546 104.574348,38.0352181 C105.634353,37.4018816 106.777675,37.0852181 108.004348,37.0852181 C108.751018,37.0852181 109.377679,37.295216 109.884348,37.7152181 C110.391017,38.1352202 110.644348,38.7518807 110.644348,39.5652181 C110.644348,40.0318871 110.494349,40.4152166 110.194348,40.7152181 C109.894346,41.0152196 109.464351,41.2818836 108.904348,41.5152181 C108.344345,41.7485526 107.437687,42.0785493 106.184348,42.5052181 C105.051009,42.8785533 104.131018,43.1918835 103.424348,43.4452181 C103.371014,43.6452191 103.344348,43.8518837 103.344348,44.0652181 C103.344348,44.4385533 103.501013,44.7252171 103.814348,44.9252181 C104.127683,45.1252191 104.571012,45.2252181 105.144348,45.2252181 C105.50435,45.2252181 105.917679,45.1518855 106.384348,45.0052181 C106.851017,44.8585507 107.144347,44.6718859 107.264348,44.4452181 C107.717683,43.6185473 108.131013,43.2052181 108.504348,43.2052181 C109.051017,43.2052181 109.421014,43.3085504 109.614348,43.5152181 C109.807682,43.7218858 109.911014,43.9518835 109.924348,44.2052181 C109.764347,44.6318869 109.451017,45.0618826 108.984348,45.4952181 C108.517679,45.9285536 107.924351,46.2852167 107.204348,46.5652181 C106.484344,46.8452195 105.697685,46.9852181 104.844348,46.9852181 C103.537675,46.9852181 102.584351,46.7252207 101.984348,46.2052181 Z M107.244348,40.4152181 C108.097685,40.0485496 108.524348,39.6852199 108.524348,39.3252181 C108.524348,39.1652173 108.437682,39.0352186 108.264348,38.9352181 C108.091014,38.8352176 107.904349,38.7852181 107.704348,38.7852181 C107.304346,38.7852181 106.847684,38.9385499 106.334348,39.2452181 C105.821012,39.5518863 105.34435,39.9252159 104.904348,40.3652181 C104.464346,40.8052203 104.157682,41.2185495 103.984348,41.6052181 C105.304354,41.1785493 106.39101,40.7818866 107.244348,40.4152181 Z M118.794348,46.7152181 C118.454346,46.8018852 118.157682,46.8452181 117.904348,46.8452181 C117.664347,46.8452181 117.507682,46.788552 117.434348,46.6752181 C117.361014,46.5618842 117.297681,46.3918859 117.244348,46.1652181 C117.191014,45.9385503 117.157681,45.7852185 117.144348,45.7052181 C116.571012,46.0918867 115.987684,46.3885504 115.394348,46.5952181 C114.801012,46.8018858 114.30435,46.9052181 113.904348,46.9052181 C113.557679,46.9052181 113.167683,46.7918859 112.734348,46.5652181 C112.301012,46.3385503 111.931016,46.0318867 111.624348,45.6452181 C111.31768,45.2585495 111.164348,44.8318871 111.164348,44.3652181 C111.164348,43.6185477 111.411012,42.6652239 111.904348,41.5052181 C112.397684,40.3452123 113.094343,39.3318891 113.994348,38.4652181 C114.894352,37.5985471 115.944342,37.1652181 117.144348,37.1652181 C118.197686,37.1652181 119.137677,37.3318831 119.964348,37.6652181 C120.791019,37.9985531 121.204348,38.4718817 121.204348,39.0852181 C120.831013,39.7785549 120.427683,40.8185445 119.994348,42.2052181 C119.561012,43.5918917 119.344348,44.6185481 119.344348,45.2852181 C119.344348,45.7252203 119.377681,46.0385505 119.444348,46.2252181 C119.351014,46.4652193 119.13435,46.628551 118.794348,46.7152181 Z M117.734348,41.9352181 C117.994349,41.1285474 118.344346,40.3185555 118.784348,39.5052181 C118.717681,39.2385501 118.507683,39.0618852 118.154348,38.9752181 C117.801013,38.888551 117.484349,38.8452181 117.204348,38.8452181 C116.711012,38.8452181 116.177684,39.1785481 115.604348,39.8452181 C115.031012,40.5118881 114.541017,41.288547 114.134348,42.1752181 C113.727679,43.0618892 113.524348,43.7785487 113.524348,44.3252181 C113.524348,44.5918861 113.59768,44.7818842 113.744348,44.8952181 C113.891015,45.008552 114.07768,45.0652181 114.304348,45.0652181 C114.611016,45.0652181 115.101011,44.9485526 115.774348,44.7152181 C116.447685,44.4818836 116.91768,44.2518859 117.184348,44.0252181 C117.291015,43.4385485 117.474347,42.7418888 117.734348,41.9352181 Z M123.294348,37.1052181 C123.421015,36.9185505 123.704346,36.8252181 124.144348,36.8252181 C124.62435,36.8252181 124.93768,36.9152172 125.084348,37.0952181 C125.231015,37.275219 125.324348,37.5452163 125.364348,37.9052181 L125.104348,39.3852181 C125.931019,37.9052107 126.917675,37.1652181 128.064348,37.1652181 C128.637684,37.1652181 129.097679,37.3485496 129.444348,37.7152181 C129.791016,38.0818866 129.964348,38.6385477 129.964348,39.3852181 C129.964348,39.7185531 129.924348,40.1052159 129.844348,40.5452181 C130.32435,39.5585465 130.781012,38.8185539 131.214348,38.3252181 C131.647683,37.8318823 132.037679,37.5152188 132.384348,37.3752181 C132.731016,37.2352174 133.091013,37.1652181 133.464348,37.1652181 C134.864355,37.1652181 135.591014,37.8318781 135.644348,39.1652181 C135.644348,39.3518857 135.617681,39.6185497 135.564348,39.9652181 C135.33768,41.2052243 135.017683,43.0585391 134.604348,45.5252181 C134.524347,46.0052205 134.431015,46.3685502 134.324348,46.6152181 C134.217681,46.861886 134.057682,47.0452175 133.844348,47.1652181 C133.631013,47.2852187 133.32435,47.3452181 132.924348,47.3452181 C132.324345,47.3452181 132.011015,46.9718885 131.984348,46.2252181 C132.011015,46.0385505 132.024348,45.8918853 132.024348,45.7852181 C132.117682,45.1985485 132.337679,44.0652265 132.684348,42.3852181 C132.991016,40.9718777 133.144348,40.1252195 133.144348,39.8452181 C133.144348,39.5652167 133.084348,39.368552 132.964348,39.2552181 C132.844347,39.1418842 132.704349,39.0852181 132.544348,39.0852181 C132.27768,39.0852181 131.89435,39.5552134 131.394348,40.4952181 C130.894345,41.4352228 130.401017,42.4852123 129.914348,43.6452181 C129.427679,44.8052239 129.117682,45.5985493 128.984348,46.0252181 C128.944348,46.1585521 128.781016,46.3252171 128.494348,46.5252181 C128.20768,46.7252191 127.971015,46.8252181 127.784348,46.8252181 C126.864343,46.8252181 126.404348,46.6385533 126.404348,46.2652181 C126.484348,46.0385503 126.757679,44.8918951 127.224348,42.8252181 L127.984348,39.5652181 C127.971014,39.4452175 127.911015,39.3452185 127.804348,39.2652181 C127.697681,39.1852177 127.584348,39.1452181 127.464348,39.1452181 C126.971012,39.1452181 126.454351,39.5785471 125.914348,40.4452181 C125.374345,41.3118891 124.901017,42.2852127 124.494348,43.3652181 C124.087679,44.4452235 123.851015,45.1985493 123.784348,45.6252181 C123.717681,45.9985533 123.591015,46.2585507 123.404348,46.4052181 C123.21768,46.5518855 122.897683,46.6252181 122.444348,46.6252181 C122.057679,46.6252181 121.764349,46.5752186 121.564348,46.4752181 C121.364347,46.3752176 121.257681,46.1785529 121.244348,45.8852181 C121.244348,45.7385507 121.404346,44.9585585 121.724348,43.5452181 C122.044349,42.1318777 122.477678,40.2918961 123.024348,38.0252181 C123.077681,37.5985493 123.167681,37.2918857 123.294348,37.1052181 Z M142.884348,38.7052181 C142.284345,38.7052181 141.684351,38.8252169 141.084348,39.0652181 C140.484345,39.3052193 140.184348,39.6118829 140.184348,39.9852181 C140.184348,40.2518861 140.304347,40.4652173 140.544348,40.6252181 C140.784349,40.7852189 141.164345,40.9652171 141.684348,41.1652181 C142.244351,41.3918859 142.697679,41.6052171 143.044348,41.8052181 C143.391016,42.0052191 143.694347,42.2952162 143.954348,42.6752181 C144.214349,43.05522 144.344348,43.5385485 144.344348,44.1252181 C144.344348,45.0852229 143.947685,45.8218822 143.154348,46.3352181 C142.361011,46.848554 141.297688,47.1052181 139.964348,47.1052181 C139.311011,47.1052181 138.704351,47.0052191 138.144348,46.8052181 C137.584345,46.6052171 137.141016,46.348553 136.814348,46.0352181 C136.48768,45.7218832 136.311015,45.4118863 136.284348,45.1052181 C136.284348,44.7852165 136.424346,44.5218858 136.704348,44.3152181 C136.984349,44.1085504 137.377679,43.9718851 137.884348,43.9052181 C137.897681,44.1718861 138.03768,44.4218836 138.304348,44.6552181 C138.571016,44.8885526 138.887679,45.0752174 139.254348,45.2152181 C139.621016,45.3552188 139.93768,45.4252181 140.204348,45.4252181 C140.657683,45.4252181 141.071013,45.301886 141.444348,45.0552181 C141.817683,44.8085502 142.004348,44.5185531 142.004348,44.1852181 C142.004348,43.5718817 141.41102,43.0852199 140.224348,42.7252181 C139.464344,42.4985503 138.881017,42.1385539 138.474348,41.6452181 C138.067679,41.1518823 137.864348,40.6318875 137.864348,40.0852181 C137.864348,39.0052127 138.354343,38.2285538 139.334348,37.7552181 C140.314353,37.2818824 141.56434,37.0452181 143.084348,37.0452181 C143.937685,37.0452181 144.597679,37.1452171 145.064348,37.3452181 C145.531017,37.5452191 145.764348,37.8918823 145.764348,38.3852181 C145.764348,38.7185531 145.641016,39.0118835 145.394348,39.2652181 C145.14768,39.5185527 144.797683,39.6452181 144.344348,39.6452181 C143.944346,39.6452181 143.687682,39.6152184 143.574348,39.5552181 C143.461014,39.4952178 143.397681,39.3918855 143.384348,39.2452181 C143.384348,39.1118841 143.417681,38.9718855 143.484348,38.8252181 C143.324347,38.7452177 143.124349,38.7052181 142.884348,38.7052181 Z" id="Social-Streams-Copy" fill="#FFFFFF"></path>
                <path d="M27.4944329,1.37604901 C28.6766045,0.696136926 30.5968952,0.698214161 31.7754552,1.37604901 L53.651116,13.9575772 C54.8332877,14.6374893 55.7916272,16.2951767 55.7916272,17.6508464 L55.7916272,42.8139028 C55.7916272,44.1737269 54.829676,45.8293371 53.651116,46.507172 L31.7754552,59.0887002 C30.5932835,59.7686122 28.6729928,59.766535 27.4944329,59.0887002 L5.61877203,46.507172 C4.43660036,45.8272599 3.47826087,44.1695725 3.47826087,42.8139028 L3.47826087,17.6508464 C3.47826087,16.2910222 4.44021207,14.635412 5.61877203,13.9575772 L27.4944329,1.37604901 Z" id="Under-Base" fill="#842696"></path>
                <path d="M28.2222333,0.726047941 C29.1919339,-0.239937321 30.7599581,-0.244092411 31.7338297,0.726047941 L59.2272226,28.1141021 C60.1969232,29.0800874 60.2010942,30.6421038 59.2272226,31.6122442 L31.7338297,59.0002984 C30.7641292,59.9662836 29.1961049,59.9704387 28.2222333,59.0002984 L0.728840433,31.6122442 C-0.240860157,30.6462589 -0.245031228,29.0842425 0.728840433,28.1141021 L28.2222333,0.726047941 Z" id="Base" fill="#F9D76F"></path>
                <path d="M21.7939383,31.5771162 C21.8789061,31.311592 21.9638725,31.062003 22.0488403,30.8283417 C22.5161629,29.4476158 22.898512,28.438639 23.1958991,27.8013809 L20.4238403,27.8013809 C19.0643563,27.8013809 18.3846246,27.2172364 18.3846246,26.0489299 C18.3846246,25.5391235 18.6023512,25.1727056 19.0378109,24.9496652 C19.4732705,24.7266249 20.1901751,24.6151064 21.1885462,24.6151064 L24.3748207,24.6151064 L24.7571736,23.6592241 C24.969593,23.1281756 25.3200797,22.1191988 25.8086442,20.6322633 C26.1272732,19.6763761 26.8813507,19.1984397 28.0708991,19.1984397 C28.6019475,19.1984397 29.0427111,19.3152686 29.393203,19.5489299 C29.743695,19.7825912 29.9189383,20.1118363 29.9189383,20.536675 C29.9189383,20.8340621 29.8605239,21.1686176 29.7436932,21.5403515 C29.6268626,21.9120854 29.5047233,22.2785033 29.3772716,22.6396162 C29.2923039,22.8307936 29.1860958,23.1175555 29.0586442,23.4999103 L28.6762912,24.6151064 L34.1566834,24.6151064 L34.5390363,23.5317731 C34.9001493,22.5971279 35.2081527,21.7687048 35.463056,21.046479 C35.6542334,20.5154306 35.951616,20.074667 36.3552128,19.724175 C36.7588096,19.3736831 37.2048836,19.1984397 37.6934481,19.1984397 C39.0316901,19.1984397 39.7008011,19.6338929 39.7008011,20.5048123 C39.7008011,20.7809575 39.6052138,21.2164106 39.4140363,21.8111848 C39.2228589,22.4059591 38.882993,23.3405902 38.3944285,24.6151064 L40.3061932,24.6151064 C41.0709029,24.6151064 41.6338058,24.7425561 41.9949187,24.9974593 C42.3560316,25.2523626 42.5365854,25.6347117 42.5365854,26.1445182 C42.5365854,26.8242601 42.2392027,27.2703341 41.6444285,27.4827535 C41.0496543,27.6951728 40.2955769,27.8013809 39.3821736,27.8013809 L37.2792324,27.8013809 L35.7498207,32.4533417 L37.6297226,32.4533417 C38.840513,32.4533417 39.6636257,32.5648602 40.0990854,32.7879005 C40.5345451,33.0109409 40.7522716,33.4410836 40.7522716,34.0783417 C40.7522716,34.5669062 40.5557867,34.9598762 40.1628109,35.2572633 C39.769835,35.5546504 39.2653466,35.7033417 38.6493305,35.7033417 L34.5708991,35.7033417 L34.1885462,36.9778515 C33.912401,37.9337386 33.6575016,38.6984369 33.4238403,39.2719692 C33.190179,39.8455014 32.8609339,40.3340586 32.4360952,40.7376554 C32.0112564,41.1412522 31.4695952,41.3430476 30.8110952,41.3430476 C29.6640306,41.3430476 29.0055405,40.9713193 28.835605,40.2278515 C28.814363,40.1853676 28.9471231,39.7711561 29.2338893,38.9852044 C29.5206554,38.1992528 29.7490028,37.5620043 29.9189383,37.0734397 L30.4287422,35.7033417 L24.5022716,35.7033417 L23.3552128,39.1763809 C23.1003096,39.9198487 22.8029269,40.4508891 22.463056,40.7695182 C22.123185,41.0881472 21.5602821,41.2474593 20.7743305,41.2474593 C20.1795562,41.2474593 19.7069303,41.1359409 19.3564383,40.9129005 C19.0059464,40.6898602 18.830703,40.3659255 18.830703,39.9410868 C18.830703,39.6012158 18.9634631,39.0170713 19.2289873,38.1886358 C19.4945115,37.3602003 19.8078254,36.5317772 20.1689383,35.7033417 L18.5120756,35.7033417 C17.8748175,35.7033417 17.3862603,35.5705816 17.0463893,35.3050574 C16.7065183,35.0395332 16.5365854,34.6518737 16.5365854,34.1420672 C16.5365854,33.6747446 16.7383807,33.2764643 17.1419775,32.9472143 C17.5455743,32.6179642 18.0872356,32.4533417 18.7669775,32.4533417 L21.4753109,32.4533417 C21.6027625,32.1347127 21.7089706,31.8426404 21.7939383,31.5771162 Z M31.3208991,32.4533417 L33.0414873,27.8013809 L27.4336442,27.8013809 L25.6811932,32.4533417 L31.3208991,32.4533417 Z" id="#" fill="#1C1D22"></path>
            </g>
        </g>
    </g>
</svg>