<?xml version="1.0" encoding="utf-8"?>
<svg viewBox="0 0 500 500" xmlns="http://www.w3.org/2000/svg">
  <path d="M 229.305 25.811 C 238.645 20.438 253.816 20.461 263.132 25.811 L 435.988 125.229 C 445.327 130.602 452.897 143.703 452.897 154.41 L 452.897 353.238 C 452.897 363.985 445.296 377.07 435.988 382.427 L 263.132 481.837 C 253.792 487.211 238.613 487.195 229.305 481.837 L 56.449 382.427 C 47.109 377.054 39.539 363.953 39.539 353.238 L 39.539 154.41 C 39.539 143.663 47.141 130.586 56.449 125.229 L 229.305 25.811 Z" id="Under-Base" fill="#842696"/>
  <path d="M 235.057 20.675 C 242.714 13.042 255.104 13.01 262.8 20.675 L 480.047 237.084 C 487.704 244.717 487.743 257.06 480.047 264.732 L 262.8 481.142 C 255.143 488.775 242.753 488.807 235.057 481.142 L 17.81 264.732 C 10.153 257.099 10.114 244.757 17.81 237.084 L 235.057 20.675 Z" id="Base" fill="#F9D76F"/>
  <path d="M 184.258 264.448 C 184.929 262.354 185.601 260.378 186.273 258.537 C 189.97 247.625 192.989 239.652 195.336 234.619 L 173.432 234.619 C 162.694 234.619 157.321 230.005 157.321 220.768 C 157.321 216.738 159.043 213.846 162.481 212.084 C 165.926 210.322 171.591 209.437 179.477 209.437 L 204.652 209.437 L 207.678 201.891 C 209.353 197.695 212.127 189.722 215.983 177.972 C 218.503 170.418 224.461 166.641 233.856 166.641 C 238.052 166.641 241.537 167.566 244.31 169.407 C 247.076 171.256 248.458 173.856 248.458 177.214 C 248.458 179.561 248 182.208 247.076 185.147 C 246.151 188.079 245.187 190.978 244.184 193.831 C 243.512 195.34 242.674 197.608 241.663 200.626 L 238.645 209.437 L 281.945 209.437 L 284.972 200.879 C 287.824 193.491 290.258 186.949 292.273 181.244 C 293.782 177.048 296.129 173.563 299.321 170.798 C 302.505 168.024 306.03 166.641 309.893 166.641 C 320.466 166.641 325.752 170.079 325.752 176.961 C 325.752 179.142 325.001 182.587 323.492 187.288 C 321.975 191.982 319.289 199.37 315.433 209.437 L 330.54 209.437 C 336.577 209.437 341.026 210.448 343.878 212.463 C 346.739 214.478 348.161 217.496 348.161 221.526 C 348.161 226.899 345.814 230.423 341.113 232.099 C 336.411 233.782 330.454 234.619 323.239 234.619 L 306.622 234.619 L 294.533 271.378 L 309.388 271.378 C 318.957 271.378 325.46 272.255 328.905 274.017 C 332.342 275.779 334.065 279.176 334.065 284.218 C 334.065 288.074 332.508 291.179 329.403 293.534 C 326.297 295.881 322.315 297.058 317.447 297.058 L 285.217 297.058 L 282.198 307.125 C 280.017 314.678 278.003 320.723 276.154 325.251 C 274.312 329.786 271.705 333.642 268.355 336.835 C 264.996 340.027 260.714 341.615 255.514 341.615 C 246.451 341.615 241.244 338.684 239.901 332.805 C 239.735 332.473 240.786 329.202 243.046 322.991 C 245.313 316.78 247.123 311.739 248.458 307.883 L 252.488 297.058 L 205.663 297.058 L 196.6 324.5 C 194.585 330.371 192.23 334.567 189.552 337.088 C 186.865 339.6 182.416 340.865 176.206 340.865 C 171.504 340.865 167.767 339.98 165.001 338.217 C 162.228 336.455 160.845 333.895 160.845 330.537 C 160.845 327.858 161.896 323.236 163.99 316.693 C 166.092 310.151 168.565 303.6 171.417 297.058 L 158.332 297.058 C 153.291 297.058 149.435 296.007 146.749 293.905 C 144.062 291.811 142.719 288.745 142.719 284.716 C 142.719 281.025 144.315 277.881 147.499 275.281 C 150.691 272.673 154.974 271.378 160.339 271.378 L 181.745 271.378 C 182.748 268.857 183.586 266.55 184.258 264.448 Z M 259.536 271.378 L 273.135 234.619 L 228.823 234.619 L 214.979 271.378 L 259.536 271.378 Z" id="#" fill="#1C1D22"/>
</svg>